<?xml version="1.0" encoding="UTF-8" standalone="no"?>
<svg
   xmlns:dc="http://purl.org/dc/elements/1.1/"
   xmlns:cc="http://creativecommons.org/ns#"
   xmlns:rdf="http://www.w3.org/1999/02/22-rdf-syntax-ns#"
   xmlns:svg="http://www.w3.org/2000/svg"
   xmlns="http://www.w3.org/2000/svg"
   xmlns:sodipodi="http://sodipodi.sourceforge.net/DTD/sodipodi-0.dtd"
   xmlns:inkscape="http://www.inkscape.org/namespaces/inkscape"
   width="7.9375mm"
   height="7.9375mm"
   viewBox="0 0 7.9375003 7.9375001"
   version="1.1"
   id="svg8"
   inkscape:version="1.0.2-2 (e86c870879, 2021-01-15)"
   sodipodi:docname="clear.svg">
  <defs
     id="defs2" />
  <sodipodi:namedview
     id="base"
     pagecolor="#ffffff"
     bordercolor="#666666"
     borderopacity="1.0"
     inkscape:pageopacity="0.0"
     inkscape:pageshadow="2"
     inkscape:zoom="16.000001"
     inkscape:cx="14.58824"
     inkscape:cy="15.52313"
     inkscape:document-units="mm"
     inkscape:current-layer="layer1"
     inkscape:document-rotation="0"
     showgrid="false"
     inkscape:window-width="1827"
     inkscape:window-height="1024"
     inkscape:window-x="93"
     inkscape:window-y="0"
     inkscape:window-maximized="0" />
  <metadata
     id="metadata5">
    <rdf:RDF>
      <cc:Work
         rdf:about="">
        <dc:format>image/svg+xml</dc:format>
        <dc:type
           rdf:resource="http://purl.org/dc/dcmitype/StillImage" />
        <dc:title />
      </cc:Work>
    </rdf:RDF>
  </metadata>
  <g
     inkscape:label="Warstwa 1"
     inkscape:groupmode="layer"
     id="layer1"
     transform="translate(-91.912229,-103.87959)">
    <g
       id="g84"
       transform="translate(-8.5517113,-8.0556176)">
      <path
         style="fill:#ffffff;stroke-width:0.264583"
         d="m 105.69419,117.15621 2.70725,-2.71649 v -0.24891 -0.24891 l -0.97973,-1.00335 -0.97974,-1.00334 h -0.28176 -0.28176 l -2.70725,2.7165 -2.70726,2.71649 v 0.24891 0.24891 l 0.97974,1.00335 0.97974,1.00334 h 0.28176 0.28176 z"
         id="path94"
         sodipodi:nodetypes="ccccccccccccccccc" />
      <path
         style="fill:#e8f4f4;stroke-width:0.264583"
         d="m 104.83784,117.70233 -0.0703,-0.14282 1.71566,-1.72795 1.52135,-1.54295 -0.52917,0.18344 -0.52916,0.18344 -1.25458,1.20744 -1.25457,1.20743 -0.93184,-0.90318 -0.93184,-0.90317 1.6496,-1.6644 1.64961,-1.6644 h 0.28467 0.28468 l 0.97974,1.00334 0.97973,1.00335 v 0.26107 0.26107 l -1.71979,1.7045 -1.71972,1.74465 z"
         id="path92"
         sodipodi:nodetypes="ccccccccccccccccccccc" />
      <path
         style="fill:#b4cbcd;stroke-width:0.264583"
         d="m 104.581,117.29747 -0.14854,-0.2316 1.26889,-1.21248 1.24489,-1.1979 0.52916,-0.18344 0.52917,-0.18344 -1.57922,1.60142 -1.65779,1.66948 -0.0319,-0.0298 -0.007,-0.0382 z"
         id="path90"
         sodipodi:nodetypes="ccccccccccc" />
      <path
         style="fill:#e86c7c;stroke-width:0.264583"
         d="m 101.44368,118.86937 -0.97974,-1.00335 v -0.26587 -0.26588 l 1.05742,-1.03253 1.05741,-1.03254 0.92684,0.89834 0.92685,0.89833 -0.62255,0.67582 -0.62256,0.67581 -0.1866,0.52917 -0.1866,0.52917 1.0607,-1.05174 0.89271,-0.86459 0.10335,0.16868 0.091,0.185 -1.00334,0.97974 -1.00334,0.97974 h -0.26588 -0.26588 z"
         id="path88"
         sodipodi:nodetypes="ccccccccccccccccccccc" />
      <path
         style="fill:#cf4d6d;stroke-width:0.264583"
         d="m 103.01409,118.88714 0.14553,-0.55651 0.63549,-0.59702 0.63735,-0.66774 0.29607,0.42559 0.039,0.068 -0.93173,0.91687 -1.02168,0.99946 z"
         id="path86"
         sodipodi:nodetypes="ccccccccc" />
    </g>
    <path
       style="fill:#000000;stroke-width:0.264583"
       id="path70"
       d="" />
  </g>
</svg>
