<?xml version="1.0" encoding="UTF-8" standalone="no"?>
<svg
   xmlns:dc="http://purl.org/dc/elements/1.1/"
   xmlns:cc="http://creativecommons.org/ns#"
   xmlns:rdf="http://www.w3.org/1999/02/22-rdf-syntax-ns#"
   xmlns:svg="http://www.w3.org/2000/svg"
   xmlns="http://www.w3.org/2000/svg"
   xmlns:sodipodi="http://sodipodi.sourceforge.net/DTD/sodipodi-0.dtd"
   xmlns:inkscape="http://www.inkscape.org/namespaces/inkscape"
   width="6.893929mm"
   height="10.180256mm"
   viewBox="0 0 6.893929 10.180256"
   version="1.1"
   id="svg2037"
   inkscape:version="1.0.2-2 (e86c870879, 2021-01-15)"
   sodipodi:docname="help.svg">
  <defs
     id="defs2031">
    <inkscape:path-effect
       effect="bspline"
       id="path-effect2618"
       is_visible="true"
       lpeversion="1"
       weight="33.333333"
       steps="2"
       helper_size="0"
       apply_no_weight="true"
       apply_with_weight="true"
       only_selected="false" />
  </defs>
  <sodipodi:namedview
     id="base"
     pagecolor="#ffffff"
     bordercolor="#666666"
     borderopacity="1.0"
     inkscape:pageopacity="0.0"
     inkscape:pageshadow="2"
     inkscape:zoom="11.2"
     inkscape:cx="34.038708"
     inkscape:cy="27.367259"
     inkscape:document-units="mm"
     inkscape:current-layer="layer1"
     inkscape:document-rotation="0"
     showgrid="false"
     inkscape:window-width="1827"
     inkscape:window-height="1046"
     inkscape:window-x="82"
     inkscape:window-y="-11"
     inkscape:window-maximized="1" />
  <metadata
     id="metadata2034">
    <rdf:RDF>
      <cc:Work
         rdf:about="">
        <dc:format>image/svg+xml</dc:format>
        <dc:type
           rdf:resource="http://purl.org/dc/dcmitype/StillImage" />
        <dc:title></dc:title>
      </cc:Work>
    </rdf:RDF>
  </metadata>
  <g
     inkscape:label="Warstwa 1"
     inkscape:groupmode="layer"
     id="layer1"
     transform="translate(-126.53681,-97.728445)">
    <circle
       style="fill:#e9f5f5;stroke:#64a2c1;stroke-width:0.465"
       id="path2614"
       cx="129.99323"
       cy="106.5069"
       r="1.1693041" />
    <path
       style="fill:#e9f5f5;fill-opacity:1;stroke:#64a2c1;stroke-width:0.465;stroke-linecap:butt;stroke-linejoin:miter;stroke-miterlimit:4;stroke-dasharray:none;stroke-opacity:1"
       d="m 129.97651,104.43557 c 0,0 1.05238,0 1.05238,0 0,0 0,-0.78511 0,-0.78511 0.26727,-0.11136 0.53467,-0.22278 0.78519,-0.36198 0.25053,-0.13919 0.48439,-0.30623 0.65139,-0.45653 0.167,-0.1503 0.26722,-0.28393 0.36188,-0.43982 0.0947,-0.15589 0.18373,-0.33404 0.24498,-0.51218 0.0613,-0.17813 0.0947,-0.3563 0.1114,-0.53723 0.0167,-0.18094 0.0167,-0.36469 0.0112,-0.56514 -0.006,-0.20045 -0.0167,-0.4176 -0.0362,-0.61526 -0.0195,-0.197661 -0.0473,-0.375831 -0.11405,-0.565139 -0.0668,-0.189309 -0.17255,-0.389757 -0.32284,-0.579108 -0.15029,-0.189351 -0.34517,-0.367527 -0.55952,-0.515129 -0.21436,-0.147602 -0.44821,-0.264529 -0.65145,-0.350865 -0.20324,-0.08634 -0.37585,-0.142016 -0.82411,-0.169907 -0.44827,-0.02789 -1.17211,-0.02789 -1.6037,-7.7e-5 -0.4316,0.02781 -0.5708,0.08349 -0.70169,0.155889 -0.1309,0.0724 -0.2534,0.161487 -0.37591,0.258938 -0.12251,0.09745 -0.24501,0.203245 -0.36474,0.317401 -0.11972,0.114157 -0.23665,0.236654 -0.34247,0.373108 -0.10581,0.136454 -0.20047,0.286789 -0.27008,0.414889 -0.0696,0.128101 -0.11414,0.233878 -0.15312,0.331328 -0.039,0.09745 -0.0724,0.186572 -0.0891,0.465032 -0.0167,0.27846 -0.0167,0.74591 -0.0167,1.21363 0,0 1.9544,0 1.9544,0 0,0 0,-1.11919 0,-1.11919 0.0947,-0.11136 0.1893,-0.22271 0.29792,-0.32018 0.10862,-0.09747 0.23112,-0.180992 0.39547,-0.225521 0.16436,-0.04453 0.37038,-0.0501 0.58198,-0.05288 0.21159,-0.0028 0.42874,-0.0028 0.58745,0.03631 0.15871,0.03909 0.25893,0.117044 0.35634,0.211723 0.0974,0.0947 0.19208,0.20606 0.26719,0.33413 0.0751,0.12808 0.13079,0.27286 0.14184,0.41201 0.0111,0.13914 -0.0224,0.27277 -0.0697,0.38408 -0.0473,0.11132 -0.10855,0.20037 -0.20872,0.29219 -0.10017,0.0918 -0.23939,0.18649 -0.37295,0.24495 -0.13356,0.0585 -0.26162,0.0807 -0.39809,0.12805 -0.13646,0.0473 -0.28125,0.11971 -0.41769,0.19767 -0.13645,0.078 -0.26451,0.16148 -0.37871,0.27568 -0.11421,0.11421 -0.21441,0.25896 -0.30072,0.38703 -0.0863,0.12807 -0.1587,0.23944 -0.20045,0.35367 -0.0418,0.11424 -0.0529,0.23116 -0.0584,0.45669 -0.006,0.22552 -0.006,0.55934 -0.006,0.89343 0,0 1.03567,0.0334 1.03567,0.0334 0,0 -4e-5,1e-5 -4e-5,1e-5 z"
       id="path2616"
       inkscape:path-effect="#path-effect2618"
       inkscape:original-d="m 129.97651,104.43557 c 0,0 1.05238,0 1.05238,0 0,0 0,-0.78511 0,-0.78511 0,0 0.5348,-0.22246 0.8018,-0.33409 0.23413,-0.16678 0.46799,-0.33382 0.70158,-0.50112 0.1005,-0.13338 0.20072,-0.26701 0.30068,-0.40091 0.0894,-0.17792 0.17845,-0.35609 0.26727,-0.53454 0.0337,-0.17792 0.0671,-0.35609 0.10023,-0.53454 2.7e-4,-0.18348 2.7e-4,-0.36723 0,-0.55124 -0.0109,-0.2169 -0.022,-0.43405 -0.0334,-0.65147 -0.0276,-0.17792 -0.0554,-0.356095 -0.0835,-0.534538 -0.10553,-0.200192 -0.21132,-0.40064 -0.31738,-0.601359 -0.19463,-0.177916 -0.38951,-0.356094 -0.58466,-0.534537 -0.2336,-0.116668 -0.46745,-0.233596 -0.70158,-0.350793 -0.17235,-0.05542 -0.34496,-0.111096 -0.51783,-0.167042 -0.72361,2.65e-4 -1.44745,2.65e-4 -2.17157,0 -0.13894,0.05595 -0.27814,0.111628 -0.41761,0.167042 -0.12223,0.08936 -0.24473,0.178446 -0.36749,0.267272 -0.12224,0.106061 -0.24474,0.211852 -0.3675,0.317381 -0.11666,0.122766 -0.23359,0.245263 -0.35079,0.367495 -0.0944,0.150606 -0.18905,0.300943 -0.28397,0.451017 -0.0443,0.106061 -0.0888,0.211855 -0.13364,0.317384 -0.0331,0.08936 -0.0666,0.178448 -0.10022,0.267268 2.6e-4,0.468 0,1.40317 0,1.40317 0,0 1.9544,0 1.9544,0 0,0 0,-1.11919 0,-1.11919 0,0 0.18959,-0.22246 0.28398,-0.33409 0.12276,-0.08326 0.24526,-0.166782 0.3675,-0.250567 0.20628,-0.0053 0.4123,-0.01087 0.61806,-0.0167 0.21742,2.65e-4 0.43457,2.65e-4 0.65146,0 0.1005,0.07822 0.20072,0.156171 0.30068,0.233867 0.0949,0.11163 0.18958,0.22299 0.28398,0.33408 0.0559,0.14504 0.11162,0.28981 0.16704,0.43432 -0.0332,0.1339 -0.0666,0.26753 -0.10023,0.4009 -0.061,0.0894 -0.12223,0.17845 -0.18374,0.26727 -0.13894,0.0949 -0.27814,0.18958 -0.41761,0.28398 -0.12781,0.0225 -0.25587,0.0448 -0.3842,0.0668 -0.14451,0.0726 -0.28928,0.14504 -0.43432,0.21716 -0.1278,0.0838 -0.25586,0.16731 -0.3842,0.25056 -0.1,0.14504 -0.20018,0.28981 -0.30067,0.43432 -0.0721,0.11163 -0.14451,0.22299 -0.21716,0.33408 -0.0109,0.1172 -0.022,0.23413 -0.0334,0.3508 2.7e-4,0.33435 0,1.00226 0,1.00226 0,0 1.03567,0.0334 1.03567,0.0334 z" />
  </g>
</svg>
