<?xml version="1.0" encoding="UTF-8" standalone="no"?>
<svg
   xmlns:dc="http://purl.org/dc/elements/1.1/"
   xmlns:cc="http://creativecommons.org/ns#"
   xmlns:rdf="http://www.w3.org/1999/02/22-rdf-syntax-ns#"
   xmlns:svg="http://www.w3.org/2000/svg"
   xmlns="http://www.w3.org/2000/svg"
   xmlns:sodipodi="http://sodipodi.sourceforge.net/DTD/sodipodi-0.dtd"
   xmlns:inkscape="http://www.inkscape.org/namespaces/inkscape"
   width="10.045321mm"
   height="9.9742556mm"
   viewBox="0 0 10.045322 9.9742556"
   version="1.1"
   id="svg881"
   inkscape:version="1.0.2-2 (e86c870879, 2021-01-15)"
   sodipodi:docname="import.svg">
  <defs
     id="defs875">
    <inkscape:path-effect
       effect="bspline"
       id="path-effect920"
       is_visible="true"
       lpeversion="1"
       weight="33.333333"
       steps="2"
       helper_size="0"
       apply_no_weight="true"
       apply_with_weight="true"
       only_selected="false" />
    <inkscape:path-effect
       effect="bspline"
       id="path-effect30"
       is_visible="true"
       lpeversion="1"
       weight="33.333333"
       steps="2"
       helper_size="0"
       apply_no_weight="true"
       apply_with_weight="true"
       only_selected="false" />
    <inkscape:path-effect
       effect="bspline"
       id="path-effect34"
       is_visible="true"
       lpeversion="1"
       weight="33.333333"
       steps="2"
       helper_size="0"
       apply_no_weight="true"
       apply_with_weight="true"
       only_selected="false" />
    <inkscape:path-effect
       effect="bspline"
       id="path-effect26"
       is_visible="true"
       lpeversion="1"
       weight="33.333333"
       steps="2"
       helper_size="0"
       apply_no_weight="true"
       apply_with_weight="true"
       only_selected="false" />
  </defs>
  <sodipodi:namedview
     id="base"
     pagecolor="#ffffff"
     bordercolor="#666666"
     borderopacity="1.0"
     inkscape:pageopacity="0.0"
     inkscape:pageshadow="2"
     inkscape:zoom="7.9195959"
     inkscape:cx="50.760343"
     inkscape:cy="41.681793"
     inkscape:document-units="mm"
     inkscape:current-layer="layer1"
     inkscape:document-rotation="0"
     showgrid="false"
     inkscape:window-width="1827"
     inkscape:window-height="1024"
     inkscape:window-x="93"
     inkscape:window-y="0"
     inkscape:window-maximized="0" />
  <metadata
     id="metadata878">
    <rdf:RDF>
      <cc:Work
         rdf:about="">
        <dc:format>image/svg+xml</dc:format>
        <dc:type
           rdf:resource="http://purl.org/dc/dcmitype/StillImage" />
        <dc:title />
      </cc:Work>
    </rdf:RDF>
  </metadata>
  <g
     inkscape:label="Warstwa 1"
     inkscape:groupmode="layer"
     id="layer1"
     transform="translate(-88.521651,-189.12145)">
    <path
       style="fill:#f7b16e;fill-opacity:1;stroke:none;stroke-width:0.264583px;stroke-linecap:butt;stroke-linejoin:miter;stroke-opacity:0"
       d="m 92.832941,193.35757 c 0,0 -4.31129,0 -4.31129,0 0,-0.55315 0,-1.10604 0.02054,-1.40329 0.02054,-0.29724 0.06163,-0.33833 0.106298,-0.40067 0.04467,-0.0623 0.09298,-0.14601 0.145684,-0.20436 0.0527,-0.0584 0.109679,-0.0913 0.18358,-0.11986 0.0739,-0.0286 0.164567,-0.0529 0.857772,-0.065 0.693204,-0.0121 1.988513,-0.0121 3.28411,-0.0121 0,0 -0.286692,2.20532 -0.286692,2.20532"
       id="path28"
       inkscape:path-effect="#path-effect30"
       inkscape:original-d="m 92.832941,193.35757 c 0,0 -4.31129,0 -4.31129,0 0,0 2.65e-4,-1.10604 0,-1.65946 0.04135,-0.0408 0.08243,-0.0819 0.123251,-0.12325 0.04857,-0.0834 0.09688,-0.16708 0.144926,-0.25102 0.05724,-0.0326 0.114218,-0.0655 0.170931,-0.0987 0.09096,-0.0241 0.181652,-0.0483 0.272082,-0.0729 1.295886,2.6e-4 3.886792,0 3.886792,0 0,0 -0.286692,2.20532 -0.286692,2.20532" />
    <path
       style="fill:#64a2c1;fill-opacity:1;stroke:none;stroke-width:0.263225px;stroke-linecap:butt;stroke-linejoin:miter;stroke-opacity:0"
       d="m 92.47352,189.12145 c 0,0 2.090681,0 2.090681,0 0,0 0,2.10434 0,2.10434 0,0 1.937129,0 1.937129,0 0,0 -3.106492,3.07469 -3.106492,3.07469 0,0 -2.89388,-3.14483 -2.89388,-3.14483 0,0 1.984375,0 1.984375,0 0,0 -0.01183,-2.0342 -0.01183,-2.0342 0,0 1.7e-5,0 1.7e-5,0 z"
       id="path918"
       inkscape:path-effect="#path-effect920"
       inkscape:original-d="m 92.47352,189.12145 c 0,0 2.090681,0 2.090681,0 0,0 0,2.10434 0,2.10434 0,0 1.937129,0 1.937129,0 0,0 -3.106492,3.07469 -3.106492,3.07469 0,0 -2.89388,-3.14483 -2.89388,-3.14483 0,0 1.984375,0 1.984375,0 0,0 -0.01183,-2.0342 -0.01183,-2.0342 z" />
    <path
       style="fill:#ffd478;fill-opacity:1;stroke:none;stroke-width:0.264583px;stroke-linecap:butt;stroke-linejoin:miter;stroke-opacity:0"
       d="m 95.939462,192.27086 c 0.566964,0 1.134195,0 1.47674,0.004 0.342545,0.004 0.46067,0.0118 0.553215,0.0276 0.09254,0.0158 0.159466,0.0394 0.208659,0.0651 0.04919,0.0257 0.08071,0.0532 0.123976,0.11432 0.04327,0.0611 0.09837,0.15555 0.143619,0.24412 0.04525,0.0886 0.0807,0.1713 0.100322,0.26577 0.01962,0.0945 0.02355,0.20077 0.0196,0.31296 -0.004,0.11219 -0.01577,0.23031 -0.02166,1.07095 -0.0059,0.84063 -0.0059,2.40369 -0.01379,3.22657 -0.0079,0.82288 -0.02364,0.90551 -0.0512,0.9763 -0.02756,0.0708 -0.06694,0.12987 -0.09646,0.17119 -0.02952,0.0413 -0.04919,0.0649 -0.08656,0.0964 -0.03737,0.0315 -0.0925,0.0709 -0.153507,0.10826 -0.06101,0.0374 -0.127925,0.0728 -0.198749,0.0965 -0.07082,0.0236 -0.145626,0.0354 -1.578786,0.0413 -1.433161,0.006 -4.224618,0.006 -5.679412,-0.0118 -1.454794,-0.0177 -1.572901,-0.0531 -1.679204,-0.0905 -0.106303,-0.0374 -0.200807,-0.0768 -0.263873,-0.12783 -0.06307,-0.0511 -0.09458,-0.11411 -0.122159,-0.18299 -0.02758,-0.0689 -0.05122,-0.14373 -0.06701,-0.23824 -0.01579,-0.0945 -0.02367,-0.20869 -0.02761,-1.05916 -0.0039,-0.85047 -0.0039,-2.43742 -0.0039,-4.02413 0,0 4.311291,0 4.311291,0 0,0 1.074869,-1.07487 1.074869,-1.07487 0,0 2.031622,-0.0118 2.031622,-0.0118 0,0 2.9e-5,-4e-5 2.9e-5,-4e-5 z"
       id="path24"
       inkscape:path-effect="#path-effect26"
       inkscape:original-d="m 95.939462,192.27086 c 0,0 1.134195,2.7e-4 1.700892,0 0.118385,0.008 0.236501,0.016 0.354354,0.0236 0.0672,0.0239 0.134131,0.0475 0.2008,0.0709 0.03176,0.0278 0.06326,0.0554 0.09449,0.0827 0.05539,0.0948 0.110508,0.18926 0.165364,0.28349 0.0357,0.0829 0.07114,0.16563 0.106307,0.24804 0.0042,0.10658 0.0081,0.21288 0.0118,0.31892 -0.01156,0.11838 -0.02336,0.2365 -0.03544,0.35435 2.65e-4,1.56339 2.65e-4,3.12645 0,4.68927 -0.01548,0.083 -0.03123,0.16563 -0.04725,0.24805 -0.03911,0.0593 -0.07848,0.11838 -0.118118,0.17717 -0.01942,0.0239 -0.03911,0.0475 -0.05906,0.0709 -0.05486,0.0396 -0.10998,0.079 -0.165365,0.11812 -0.06667,0.0357 -0.133604,0.0711 -0.2008,0.10631 -0.07455,0.0121 -0.149352,0.0239 -0.224425,0.0354 -2.791301,2.7e-4 -5.582758,2.7e-4 -8.374533,0 -0.117856,-0.0352 -0.235972,-0.0706 -0.354354,-0.1063 -0.09423,-0.0391 -0.188725,-0.0785 -0.283483,-0.11812 -0.03123,-0.0627 -0.06273,-0.12573 -0.09449,-0.18899 -0.02336,-0.0745 -0.04698,-0.14935 -0.07087,-0.22442 -0.0076,-0.11392 -0.01548,-0.2281 -0.02363,-0.34254 2.65e-4,-1.58648 0,-4.76014 0,-4.76014 0,0 4.311291,0 4.311291,0 0,0 1.074869,-1.07487 1.074869,-1.07487 0,0 2.031622,-0.0118 2.031622,-0.0118 z" />
  </g>
</svg>
