<?xml version="1.0" encoding="UTF-8" standalone="no"?>
<svg
   xmlns:dc="http://purl.org/dc/elements/1.1/"
   xmlns:cc="http://creativecommons.org/ns#"
   xmlns:rdf="http://www.w3.org/1999/02/22-rdf-syntax-ns#"
   xmlns:svg="http://www.w3.org/2000/svg"
   xmlns="http://www.w3.org/2000/svg"
   xmlns:sodipodi="http://sodipodi.sourceforge.net/DTD/sodipodi-0.dtd"
   xmlns:inkscape="http://www.inkscape.org/namespaces/inkscape"
   width="10.056018mm"
   height="8.0180798mm"
   viewBox="0 0 10.056017 8.0180797"
   version="1.1"
   id="svg8"
   inkscape:version="1.0.2-2 (e86c870879, 2021-01-15)"
   sodipodi:docname="openFile.svg">
  <defs
     id="defs2">
    <inkscape:path-effect
       effect="bspline"
       id="path-effect857"
       is_visible="true"
       lpeversion="1"
       weight="33.333333"
       steps="2"
       helper_size="0"
       apply_no_weight="true"
       apply_with_weight="true"
       only_selected="false" />
    <inkscape:path-effect
       effect="bspline"
       id="path-effect853"
       is_visible="true"
       lpeversion="1"
       weight="33.333333"
       steps="2"
       helper_size="0"
       apply_no_weight="true"
       apply_with_weight="true"
       only_selected="false" />
  </defs>
  <sodipodi:namedview
     id="base"
     pagecolor="#ffffff"
     bordercolor="#666666"
     borderopacity="1.0"
     inkscape:pageopacity="0.0"
     inkscape:pageshadow="2"
     inkscape:zoom="15.839192"
     inkscape:cx="18.137933"
     inkscape:cy="16.192242"
     inkscape:document-units="mm"
     inkscape:current-layer="layer1"
     inkscape:document-rotation="0"
     showgrid="false"
     inkscape:window-width="1827"
     inkscape:window-height="1024"
     inkscape:window-x="93"
     inkscape:window-y="0"
     inkscape:window-maximized="0" />
  <metadata
     id="metadata5">
    <rdf:RDF>
      <cc:Work
         rdf:about="">
        <dc:format>image/svg+xml</dc:format>
        <dc:type
           rdf:resource="http://purl.org/dc/dcmitype/StillImage" />
        <dc:title />
      </cc:Work>
    </rdf:RDF>
  </metadata>
  <g
     inkscape:label="Warstwa 1"
     inkscape:groupmode="layer"
     id="layer1"
     transform="translate(-77.341115,-104.13489)">
    <path
       style="fill:#f7b16e;fill-opacity:1;stroke:none;stroke-width:0.264583px;stroke-linecap:butt;stroke-linejoin:miter;stroke-opacity:0"
       d="m 77.341115,106.20623 c 0,-0.48999 0,-0.97973 0.01112,-1.27209 0.01111,-0.29236 0.03339,-0.38702 0.07238,-0.46228 0.039,-0.0753 0.09469,-0.13095 0.164316,-0.18387 0.06963,-0.0529 0.153186,-0.10304 0.801968,-0.12807 0.648783,-0.025 1.862343,-0.025 3.076192,-0.025 0,0 3.282405,3.2824 3.282405,3.2824 0,0 -7.40838,-1.21106 -7.40838,-1.21106 z"
       id="path855"
       inkscape:path-effect="#path-effect857"
       inkscape:original-d="m 77.341115,106.20623 c 0,0 2.65e-4,-0.97973 0,-1.46998 0.02254,-0.0944 0.04481,-0.18906 0.06682,-0.28398 0.05595,-0.0554 0.111627,-0.1111 0.167044,-0.16704 0.08379,-0.0498 0.167307,-0.1 0.250563,-0.15034 1.214139,2.6e-4 3.641548,0 3.641548,0 0,0 3.282405,3.2824 3.282405,3.2824 0,0 -7.408381,-1.21106 -7.40838,-1.21106 z" />
    <path
       style="fill:#ffd478;fill-opacity:1;stroke:none;stroke-width:0.264583px;stroke-linecap:butt;stroke-linejoin:miter;stroke-opacity:0"
       d="m 80.860299,112.15297 c 1.147164,0 3.441228,0 4.643889,-0.0167 1.202661,-0.0167 1.314019,-0.0501 1.405831,-0.0974 0.09181,-0.0473 0.164191,-0.10856 0.22819,-0.18647 0.064,-0.0779 0.119676,-0.17255 0.155873,-0.25326 0.0362,-0.0807 0.05289,-0.14748 0.06682,-0.231 0.01393,-0.0835 0.02506,-0.1837 0.03065,-1.08574 0.0056,-0.90204 0.0056,-2.60584 0.0056,-3.4884 0,-0.88255 0,-0.94379 -0.02218,-1.00782 -0.02218,-0.064 -0.0667,-0.13081 -0.114019,-0.19485 -0.04732,-0.0641 -0.09742,-0.12529 -0.158665,-0.18935 -0.06124,-0.0641 -0.133604,-0.13086 -0.888102,-0.1644 -0.754499,-0.0335 -2.191308,-0.0335 -3.627882,-0.0335 0,0 -1.00226,1.00226 -1.00226,1.00226 0,0 -4.242906,0 -4.242906,0 0,0 0,5.028 0,5.028 0.0056,0.0668 0.01115,0.13392 0.02511,0.20077 0.01396,0.0668 0.03623,0.13364 0.06967,0.20882 0.03344,0.0752 0.07798,0.15868 0.136507,0.23662 0.05852,0.0779 0.130887,0.1503 0.49004,0.19471 0.359153,0.0444 1.005044,0.0611 1.327858,0.0695 0.322814,0.008 0.322828,0.008 1.469991,0.008 z"
       id="path851"
       inkscape:path-effect="#path-effect853"
       inkscape:original-d="m 79.713136,112.15297 c 2.294327,2.7e-4 4.588391,2.7e-4 6.882191,0 0.111628,-0.0331 0.222988,-0.0665 0.334087,-0.10022 0.07265,-0.061 0.145034,-0.12224 0.217157,-0.18375 0.05595,-0.0944 0.111625,-0.18905 0.167042,-0.28397 0.01696,-0.0666 0.03367,-0.13337 0.05011,-0.20046 0.0114,-0.1 0.02254,-0.20018 0.03341,-0.30067 2.64e-4,-1.70362 2.64e-4,-3.40742 0,-5.11153 2.64e-4,-0.061 2.64e-4,-0.12224 0,-0.18375 -0.04428,-0.0666 -0.08882,-0.13337 -0.133633,-0.20045 -0.04985,-0.061 -0.09996,-0.12224 -0.150339,-0.18375 -0.07212,-0.0666 -0.144508,-0.13337 -0.217157,-0.20045 -1.436338,2.6e-4 -4.309721,0 -4.309721,0 0,0 -1.00226,1.00226 -1.00226,1.00226 0,0 -4.242906,0 -4.242906,0 0,0 0,5.028 0,5.028 0,0 0.0114,0.1339 0.01669,0.20046 0.02254,0.0671 0.04481,0.1339 0.06682,0.20045 0.04481,0.0838 0.08935,0.16731 0.133633,0.25056 0.07265,0.0727 0.145037,0.14504 0.217157,0.21716 0.646178,0.017 1.292069,0.0337 1.937705,0.0501 z" />
  </g>
</svg>
