<?xml version="1.0" encoding="UTF-8" standalone="no"?>
<svg
   xmlns:dc="http://purl.org/dc/elements/1.1/"
   xmlns:cc="http://creativecommons.org/ns#"
   xmlns:rdf="http://www.w3.org/1999/02/22-rdf-syntax-ns#"
   xmlns:svg="http://www.w3.org/2000/svg"
   xmlns="http://www.w3.org/2000/svg"
   xmlns:sodipodi="http://sodipodi.sourceforge.net/DTD/sodipodi-0.dtd"
   xmlns:inkscape="http://www.inkscape.org/namespaces/inkscape"
   width="9.5399227mm"
   height="9.7875834mm"
   viewBox="0 0 9.5399227 9.7875834"
   version="1.1"
   id="svg8"
   inkscape:version="1.0.2-2 (e86c870879, 2021-01-15)"
   sodipodi:docname="redo.svg">
  <defs
     id="defs2" />
  <sodipodi:namedview
     id="base"
     pagecolor="#ffffff"
     bordercolor="#666666"
     borderopacity="1.0"
     inkscape:pageopacity="0.0"
     inkscape:pageshadow="2"
     inkscape:zoom="7.9195959"
     inkscape:cx="74.583589"
     inkscape:cy="38.244529"
     inkscape:document-units="mm"
     inkscape:current-layer="layer1"
     inkscape:document-rotation="0"
     showgrid="false"
     inkscape:window-width="1827"
     inkscape:window-height="1050"
     inkscape:window-x="93"
     inkscape:window-y="0"
     inkscape:window-maximized="0" />
  <metadata
     id="metadata5">
    <rdf:RDF>
      <cc:Work
         rdf:about="">
        <dc:format>image/svg+xml</dc:format>
        <dc:type
           rdf:resource="http://purl.org/dc/dcmitype/StillImage" />
        <dc:title></dc:title>
      </cc:Work>
    </rdf:RDF>
  </metadata>
  <g
     inkscape:label="Warstwa 1"
     inkscape:groupmode="layer"
     id="layer1"
     transform="translate(-96.478318,-128.92692)">
    <path
       style="fill:#63a1c0;stroke-width:0.264583"
       d="m 98.864405,138.12536 c -3.18145,-1.60432 -3.18145,-6.99465 0,-8.59896 1.531105,-0.77209 3.726715,-0.8017 5.162655,-0.0696 0.95865,0.48874 1.06487,0.49516 1.51115,0.0913 0.45908,-0.41545 0.48003,-0.35757 0.48003,1.32638 v 1.7608 h -1.7608 c -1.7509,0 -1.75807,-0.003 -1.27625,-0.53542 0.59384,-0.65619 0.31143,-1.01242 -0.96713,-1.2199 -2.585485,-0.41957 -4.450425,2.12207 -3.254285,4.43514 0.42727,0.82624 1.750245,1.55477 2.818195,1.55189 0.33209,-9e-4 0.9503,-0.18233 1.3738,-0.40318 0.72064,-0.3758 0.80967,-0.36426 1.38906,0.18004 0.86976,0.8171 0.77674,1.16256 -0.44461,1.65125 -1.54201,0.61699 -3.61006,0.54724 -5.031815,-0.16971 z"
       id="path46" />
  </g>
</svg>
