<?xml version="1.0" encoding="UTF-8" standalone="no"?>
<svg
   xmlns:dc="http://purl.org/dc/elements/1.1/"
   xmlns:cc="http://creativecommons.org/ns#"
   xmlns:rdf="http://www.w3.org/1999/02/22-rdf-syntax-ns#"
   xmlns:svg="http://www.w3.org/2000/svg"
   xmlns="http://www.w3.org/2000/svg"
   xmlns:sodipodi="http://sodipodi.sourceforge.net/DTD/sodipodi-0.dtd"
   xmlns:inkscape="http://www.inkscape.org/namespaces/inkscape"
   width="10.141443mm"
   height="5.2918806mm"
   viewBox="0 0 10.141443 5.2918806"
   version="1.1"
   id="svg865"
   inkscape:version="1.0.2-2 (e86c870879, 2021-01-15)"
   sodipodi:docname="run.svg">
  <defs
     id="defs859">
    <inkscape:path-effect
       effect="bspline"
       id="path-effect1452"
       is_visible="true"
       lpeversion="1"
       weight="33.333333"
       steps="2"
       helper_size="0"
       apply_no_weight="true"
       apply_with_weight="true"
       only_selected="false" />
    <inkscape:path-effect
       effect="bspline"
       id="path-effect1448"
       is_visible="true"
       lpeversion="1"
       weight="33.333333"
       steps="2"
       helper_size="0"
       apply_no_weight="true"
       apply_with_weight="true"
       only_selected="false" />
    <inkscape:path-effect
       effect="bspline"
       id="path-effect1444"
       is_visible="true"
       lpeversion="1"
       weight="33.333333"
       steps="2"
       helper_size="0"
       apply_no_weight="true"
       apply_with_weight="true"
       only_selected="false" />
  </defs>
  <sodipodi:namedview
     id="base"
     pagecolor="#ffffff"
     bordercolor="#666666"
     borderopacity="1.0"
     inkscape:pageopacity="0.0"
     inkscape:pageshadow="2"
     inkscape:zoom="15.839192"
     inkscape:cx="16.634416"
     inkscape:cy="21.950062"
     inkscape:document-units="mm"
     inkscape:current-layer="layer1"
     inkscape:document-rotation="0"
     showgrid="false"
     inkscape:window-width="1827"
     inkscape:window-height="1046"
     inkscape:window-x="82"
     inkscape:window-y="-11"
     inkscape:window-maximized="1" />
  <metadata
     id="metadata862">
    <rdf:RDF>
      <cc:Work
         rdf:about="">
        <dc:format>image/svg+xml</dc:format>
        <dc:type
           rdf:resource="http://purl.org/dc/dcmitype/StillImage" />
        <dc:title></dc:title>
      </cc:Work>
    </rdf:RDF>
  </metadata>
  <g
     inkscape:label="Warstwa 1"
     inkscape:groupmode="layer"
     id="layer1"
     transform="translate(-98.37521,-137.19981)">
    <path
       style="fill:#e9f5f5;fill-opacity:1;stroke:#64a2c1;stroke-width:0.465;stroke-linecap:butt;stroke-linejoin:miter;stroke-miterlimit:4;stroke-dasharray:none;stroke-opacity:1"
       d="m 101.29972,142.24898 c 1.05335,0 3.15978,0 4.2799,-0.01 1.12012,-0.01 1.25399,-0.0296 1.35625,-0.0689 0.10227,-0.0394 0.17316,-0.0984 0.24793,-0.19485 0.0748,-0.0964 0.15352,-0.23028 0.33307,-0.82033 0.17956,-0.59005 0.45991,-1.63635 0.6056,-2.19543 0.14569,-0.55907 0.15668,-0.63092 0.16024,-0.73376 0.004,-0.10285 -3.8e-4,-0.23672 -0.0239,-0.33905 -0.0235,-0.10234 -0.0669,-0.17325 -0.12784,-0.23825 -0.061,-0.065 -0.1397,-0.12405 -0.23026,-0.15958 -0.0906,-0.0355 -0.19294,-0.0473 -1.51589,-0.0532 -1.32295,-0.006 -3.86636,-0.006 -5.17756,0.0157 -1.311197,0.0216 -1.389936,0.0649 -1.482521,0.15948 -0.09259,0.0945 -0.198892,0.24022 -0.387437,0.81839 -0.188544,0.57817 -0.459299,1.58864 -0.597082,2.16351 -0.137783,0.57488 -0.142626,0.71406 -0.127268,0.8329 0.01536,0.11884 0.05079,0.21727 0.111885,0.30778 0.06109,0.0905 0.147738,0.17322 0.242262,0.24604 0.09452,0.0728 0.196872,0.13579 0.336645,0.18297 0.139773,0.0472 0.316947,0.0787 0.480325,0.0905 0.163379,0.0118 0.312981,0.004 0.387661,-1e-5 0.0747,-0.004 0.0746,-0.004 1.12799,-0.004 z"
       id="path1442"
       inkscape:path-effect="#path-effect1444"
       inkscape:original-d="m 100.24637,142.24898 c 2.1067,2.6e-4 4.21313,2.6e-4 6.31929,0 0.13413,-0.0194 0.268,-0.0391 0.4016,-0.0591 0.0711,-0.0588 0.14201,-0.11786 0.21261,-0.17718 0.079,-0.1336 0.15776,-0.26747 0.23624,-0.4016 0.28063,-1.04607 0.56098,-2.09237 0.84108,-3.13895 0.0113,-0.0716 0.0222,-0.14346 0.033,-0.21559 -0.004,-0.1336 -0.008,-0.26747 -0.0118,-0.4016 -0.043,-0.0706 -0.0864,-0.14147 -0.12993,-0.21261 -0.0785,-0.0588 -0.15722,-0.11785 -0.23623,-0.17718 -0.10211,-0.0115 -0.20448,-0.0234 -0.30711,-0.0354 -2.54325,2.6e-4 -5.08666,2.6e-4 -7.630393,0 -0.07848,0.0436 -0.157223,0.0869 -0.236233,0.12993 -0.106045,0.14594 -0.212347,0.29162 -0.318918,0.43703 -0.270502,1.01079 -0.541258,2.02126 -0.812287,3.03149 -0.0046,0.13945 -0.0094,0.27863 -0.01453,0.41755 0.0357,0.0987 0.07114,0.19712 0.106307,0.29529 0.08688,0.0829 0.173504,0.16563 0.259858,0.24805 0.102635,0.0633 0.205002,0.12625 0.307105,0.18898 0.177445,0.0318 0.354618,0.0633 0.531529,0.0945 0.149884,-0.008 0.299502,-0.0155 0.448852,-0.0236 z" />
    <path
       style="fill:#37354e;fill-opacity:1;stroke:#000000;stroke-width:0.264583px;stroke-linecap:butt;stroke-linejoin:miter;stroke-opacity:0"
       d="m 101.73465,140.63077 c 0,0 0,0.54334 0,0.54334 0,0 2.1025,0 2.1025,0 0,0 0,-0.54334 0,-0.54334 0,0 -2.1025,0 -2.1025,0 z"
       id="path1446"
       inkscape:path-effect="#path-effect1448"
       inkscape:original-d="m 101.73465,140.63077 c 0,0 0,0.54334 0,0.54334 0,0 2.1025,0 2.1025,0 0,0 0,-0.54334 0,-0.54334 0,0 -2.1025,0 -2.1025,0 z" />
    <path
       style="fill:#37354e;fill-opacity:1;stroke:#000000;stroke-width:0.264583px;stroke-linecap:butt;stroke-linejoin:miter;stroke-opacity:0"
       d="m 100.61862,141.19348 c 0,0 0.64312,-2.65599 0.64312,-2.65599 0,0 -0.58465,0 -0.58465,0 0,0 -0.54498,2.65599 -0.54498,2.65599 0,0 0.48651,4e-5 0.48651,4e-5 0,0 0,-4e-5 0,-4e-5 z"
       id="path1450"
       inkscape:path-effect="#path-effect1452"
       inkscape:original-d="m 100.61862,141.19348 0.64312,-2.65599 h -0.58465 l -0.54498,2.65599 0.48651,4e-5 z"
       sodipodi:nodetypes="cccccc" />
  </g>
</svg>
