<?xml version="1.0" encoding="UTF-8" standalone="no"?>
<svg
   xmlns:dc="http://purl.org/dc/elements/1.1/"
   xmlns:cc="http://creativecommons.org/ns#"
   xmlns:rdf="http://www.w3.org/1999/02/22-rdf-syntax-ns#"
   xmlns:svg="http://www.w3.org/2000/svg"
   xmlns="http://www.w3.org/2000/svg"
   xmlns:sodipodi="http://sodipodi.sourceforge.net/DTD/sodipodi-0.dtd"
   xmlns:inkscape="http://www.inkscape.org/namespaces/inkscape"
   width="10.051143mm"
   height="10.06436mm"
   viewBox="0 0 10.051143 10.064359"
   version="1.1"
   id="svg924"
   inkscape:version="1.0.2-2 (e86c870879, 2021-01-15)"
   sodipodi:docname="saveAs.svg">
  <defs
     id="defs918">
    <inkscape:path-effect
       effect="bspline"
       id="path-effect1577"
       is_visible="true"
       lpeversion="1"
       weight="33.333333"
       steps="2"
       helper_size="0"
       apply_no_weight="true"
       apply_with_weight="true"
       only_selected="false" />
    <inkscape:path-effect
       effect="bspline"
       id="path-effect1573"
       is_visible="true"
       lpeversion="1"
       weight="33.333333"
       steps="2"
       helper_size="0"
       apply_no_weight="true"
       apply_with_weight="true"
       only_selected="false" />
    <inkscape:path-effect
       effect="bspline"
       id="path-effect1569"
       is_visible="true"
       lpeversion="1"
       weight="33.333333"
       steps="2"
       helper_size="0"
       apply_no_weight="true"
       apply_with_weight="true"
       only_selected="false" />
    <inkscape:path-effect
       effect="bspline"
       id="path-effect873"
       is_visible="true"
       lpeversion="1"
       weight="33.333333"
       steps="2"
       helper_size="0"
       apply_no_weight="true"
       apply_with_weight="true"
       only_selected="false" />
    <inkscape:path-effect
       effect="bspline"
       id="path-effect869"
       is_visible="true"
       lpeversion="1"
       weight="33.333333"
       steps="2"
       helper_size="0"
       apply_no_weight="true"
       apply_with_weight="true"
       only_selected="false" />
    <inkscape:path-effect
       effect="bspline"
       id="path-effect861"
       is_visible="true"
       lpeversion="1"
       weight="33.333333"
       steps="2"
       helper_size="0"
       apply_no_weight="true"
       apply_with_weight="true"
       only_selected="false" />
    <inkscape:path-effect
       effect="bspline"
       id="path-effect857"
       is_visible="true"
       lpeversion="1"
       weight="33.333333"
       steps="2"
       helper_size="0"
       apply_no_weight="true"
       apply_with_weight="true"
       only_selected="false" />
    <inkscape:path-effect
       effect="bspline"
       id="path-effect853"
       is_visible="true"
       lpeversion="1"
       weight="33.333333"
       steps="2"
       helper_size="0"
       apply_no_weight="true"
       apply_with_weight="true"
       only_selected="false" />
    <inkscape:path-effect
       effect="bspline"
       id="path-effect849"
       is_visible="true"
       lpeversion="1"
       weight="33.333333"
       steps="2"
       helper_size="0"
       apply_no_weight="true"
       apply_with_weight="true"
       only_selected="false" />
  </defs>
  <sodipodi:namedview
     id="base"
     pagecolor="#ffffff"
     bordercolor="#666666"
     borderopacity="1.0"
     inkscape:pageopacity="0.0"
     inkscape:pageshadow="2"
     inkscape:zoom="15.839192"
     inkscape:cx="25.914546"
     inkscape:cy="18.082778"
     inkscape:document-units="mm"
     inkscape:current-layer="layer1"
     inkscape:document-rotation="0"
     showgrid="false"
     inkscape:window-width="1827"
     inkscape:window-height="1024"
     inkscape:window-x="93"
     inkscape:window-y="0"
     inkscape:window-maximized="0" />
  <metadata
     id="metadata921">
    <rdf:RDF>
      <cc:Work
         rdf:about="">
        <dc:format>image/svg+xml</dc:format>
        <dc:type
           rdf:resource="http://purl.org/dc/dcmitype/StillImage" />
        <dc:title />
      </cc:Work>
    </rdf:RDF>
  </metadata>
  <g
     inkscape:label="Warstwa 1"
     inkscape:groupmode="layer"
     id="layer1"
     transform="translate(-74.349435,-123.55905)">
    <g
       inkscape:label="Warstwa 1"
       id="layer1-5"
       transform="translate(-17.345573,-30.145988)">
      <path
         style="fill:#37354e;fill-opacity:1;stroke:none;stroke-width:0.264583px;stroke-linecap:butt;stroke-linejoin:miter;stroke-opacity:0"
         d="m 95.418137,163.7694 c 1.138811,0 3.41617,0 4.582643,-0.006 1.16647,-0.006 1.22219,-0.0167 1.27778,-0.0446 0.0556,-0.0278 0.11127,-0.0724 0.18087,-0.13362 0.0696,-0.0613 0.15312,-0.1392 0.2032,-0.23653 0.0501,-0.0973 0.0668,-0.21426 0.0752,-1.49492 0.008,-1.28067 0.008,-3.72529 0.008,-6.16969 0,0 -1.979467,-1.97947 -1.979467,-1.97947 0,0 -7.22463,0 -7.22463,0 -0.111362,0.0139 -0.222492,0.0278 -0.311681,0.0599 -0.08919,0.032 -0.155999,0.0821 -0.222853,0.14899 -0.06685,0.0668 -0.133665,0.15037 -0.186577,0.24787 -0.05291,0.0975 -0.09189,0.20887 -0.111349,1.67336 -0.01946,1.4645 -0.01946,4.28191 8.3e-5,5.74635 0.01954,1.46444 0.05852,1.5758 0.114254,1.6788 0.05573,0.10299 0.12813,0.19766 0.197752,0.27559 0.06962,0.0779 0.13645,0.13919 0.22276,0.17247 0.08631,0.0333 0.192095,0.0389 0.534536,0.0444 0.34244,0.006 0.921511,0.0111 1.210919,0.0139 0.289408,0.003 0.289428,0.003 1.42824,0.003 z"
         id="path847"
         inkscape:path-effect="#path-effect849"
         inkscape:original-d="m 94.279325,163.7694 c 2.277623,2.6e-4 4.554982,2.6e-4 6.832075,0 0.0559,-0.0109 0.11163,-0.022 0.16705,-0.0334 0.0559,-0.0443 0.11162,-0.0888 0.16704,-0.13363 0.0838,-0.0777 0.16731,-0.15565 0.25056,-0.23386 0.017,-0.11667 0.0337,-0.2336 0.0501,-0.35079 2.6e-4,-2.44419 0,-7.33321 0,-7.33321 0,0 -1.979467,-1.97947 -1.979467,-1.97947 0,0 -7.22463,0 -7.22463,0 0,0 -0.222459,0.0281 -0.334087,0.0418 -0.06655,0.0504 -0.133371,0.10049 -0.200453,0.15034 -0.06655,0.0838 -0.133369,0.16731 -0.200451,0.25057 -0.03871,0.11163 -0.07769,0.22299 -0.11693,0.33408 2.64e-4,2.81779 2.64e-4,5.6352 0,8.4524 0.03924,0.11163 0.07822,0.22299 0.11693,0.33409 0.07265,0.0949 0.145036,0.18958 0.217157,0.28397 0.06708,0.0615 0.1339,0.12277 0.200451,0.18375 0.10606,0.006 0.211854,0.0114 0.317383,0.0167 0.579361,0.006 1.158433,0.0114 1.737252,0.0167 z" />
      <path
         style="fill:#e9f5f5;fill-opacity:1;stroke:#000000;stroke-width:0.264583px;stroke-linecap:butt;stroke-linejoin:miter;stroke-opacity:0"
         d="m 95.392567,162.72538 c 0.937847,0 2.813275,0 3.806097,-0.007 0.992826,-0.007 1.103056,-0.0211 1.183696,-0.0478 0.0806,-0.0267 0.13179,-0.0661 0.17899,-0.12703 0.0472,-0.061 0.0905,-0.14365 0.12399,-0.20861 0.0335,-0.065 0.0571,-0.11216 0.0689,-0.83854 0.0118,-0.72638 0.0118,-2.13195 -0.004,-2.87804 -0.0157,-0.7461 -0.0472,-0.83268 -0.0865,-0.90554 -0.0393,-0.0729 -0.0866,-0.1319 -0.16526,-0.17925 -0.0787,-0.0474 -0.18895,-0.0828 -1.399701,-0.10055 -1.210754,-0.0178 -3.521873,-0.0178 -4.703154,-7e-5 -1.181282,0.0177 -1.232449,0.0531 -1.28366,0.0945 -0.05121,0.0413 -0.102419,0.0886 -0.141803,0.13787 -0.03938,0.0492 -0.06696,0.10046 -0.100432,0.1812 -0.03347,0.0808 -0.07284,0.19099 -0.0925,0.93126 -0.01966,0.74027 -0.01966,2.11041 -0.0038,2.83094 0.01581,0.72053 0.04732,0.79143 0.08874,0.84848 0.04142,0.0571 0.0926,0.10037 0.15167,0.1397 0.05907,0.0393 0.125987,0.0748 0.236215,0.0944 0.110229,0.0196 0.263778,0.0235 0.471804,0.0267 0.208026,0.003 0.470525,0.005 0.60164,0.007 0.131116,0.001 0.131087,8.4e-4 1.068934,8.4e-4 z"
         id="path851"
         inkscape:path-effect="#path-effect853"
         inkscape:original-d="m 94.45472,162.72538 c 1.875694,2.7e-4 3.751122,2.7e-4 5.62629,0 0.11051,-0.0138 0.22075,-0.0278 0.33073,-0.0421 0.0515,-0.0391 0.10263,-0.0785 0.15355,-0.11812 0.0436,-0.0824 0.0869,-0.1651 0.12993,-0.24804 0.0239,-0.047 0.0475,-0.0942 0.0709,-0.14174 2.6e-4,-1.40537 2.6e-4,-2.81094 0,-4.2168 -0.0312,-0.0864 -0.0627,-0.17297 -0.0945,-0.25986 -0.047,-0.0588 -0.0942,-0.11785 -0.14174,-0.17718 -0.10998,-0.0352 -0.22022,-0.0706 -0.33072,-0.1063 -2.310955,2.6e-4 -4.622074,2.6e-4 -6.933506,0 -0.05092,0.0357 -0.102103,0.0711 -0.153554,0.1063 -0.05092,0.0475 -0.102102,0.0948 -0.153551,0.14175 -0.0273,0.0514 -0.05486,0.10263 -0.08268,0.15355 -0.03911,0.11051 -0.07848,0.22075 -0.118118,0.33073 2.65e-4,1.37045 2.65e-4,2.74059 0,4.11049 0.03176,0.0711 0.06326,0.142 0.09449,0.21261 0.05145,0.0436 0.102635,0.0869 0.153554,0.12993 0.0672,0.0357 0.13413,0.0711 0.2008,0.10631 0.153821,0.004 0.307369,0.008 0.460658,0.0118 0.262769,0.002 0.525262,0.005 0.787496,0.007 z" />
      <path
         style="fill:#b5ccce;fill-opacity:1;stroke:#000000;stroke-width:0.264583px;stroke-linecap:butt;stroke-linejoin:miter;stroke-opacity:0"
         d="m 94.635787,153.68276 c 0,0.74414 0,1.48854 0.01779,1.90396 0.01779,0.41541 0.05322,0.50202 0.09067,0.56893 0.03746,0.0669 0.07686,0.11419 0.139873,0.15149 0.06302,0.0373 0.149651,0.0649 0.746129,0.0786 0.596478,0.0137 1.702823,0.0137 2.293369,0.002 0.590545,-0.0118 0.665338,-0.0355 0.726288,-0.0709 0.06095,-0.0354 0.108174,-0.0826 0.145568,-0.122 0.03739,-0.0394 0.06495,-0.0709 0.08071,-0.11209 0.01575,-0.0412 0.01969,-0.0924 0.02166,-0.49009 0.002,-0.39766 0.002,-1.14205 0.002,-1.88619 0,0 -4.264043,-0.0236 -4.264043,-0.0236 0,0 1.3e-5,-1e-5 1.3e-5,-1e-5 z"
         id="path855"
         inkscape:path-effect="#path-effect857"
         inkscape:original-d="m 94.635787,153.68276 c 0,0 2.65e-4,1.48854 0,2.23242 0.0357,0.0869 0.07114,0.1735 0.106307,0.25986 0.03964,0.0475 0.07901,0.0948 0.118118,0.14174 0.08688,0.0278 0.173503,0.0554 0.259858,0.0827 1.106654,2.6e-4 2.212999,2.6e-4 3.319102,0 0.07508,-0.0234 0.149882,-0.047 0.224425,-0.0709 0.04751,-0.047 0.09476,-0.0942 0.14174,-0.14174 0.02783,-0.0312 0.05539,-0.0627 0.08268,-0.0945 0.0042,-0.0509 0.0081,-0.1021 0.0118,-0.15355 2.65e-4,-0.74389 0,-2.23242 0,-2.23242 0,0 -4.264043,-0.0236 -4.264043,-0.0236 z" />
      <path
         style="fill:#252435;fill-opacity:1;stroke:#000000;stroke-width:0.264583px;stroke-linecap:butt;stroke-linejoin:miter;stroke-opacity:0"
         d="m 94.635774,153.68277 c 0,0 0,2.62219 0,2.62219 -0.314976,0 -0.629687,0 -0.822587,-0.01 -0.192901,-0.01 -0.263775,-0.0295 -0.330731,-0.0668 -0.06696,-0.0373 -0.12993,-0.0924 -0.187062,-0.16129 -0.05713,-0.0689 -0.108325,-0.15156 -0.141858,-0.23229 -0.03353,-0.0807 -0.04928,-0.15945 -0.05719,-0.51383 -0.0079,-0.35438 -0.0079,-0.98459 -0.0079,-1.61455 0,0 1.547326,-0.0236 1.547326,-0.0236 0,0 3e-6,-6e-5 3e-6,-6e-5 z"
         id="path859"
         inkscape:path-effect="#path-effect861"
         inkscape:original-d="m 94.635774,153.68277 c 0,0 0,2.62219 0,2.62219 0,0 -0.629687,2.7e-4 -0.944928,0 -0.07061,-0.0194 -0.141475,-0.0391 -0.212611,-0.059 -0.06273,-0.0549 -0.125727,-0.10998 -0.188987,-0.16537 -0.05092,-0.0824 -0.102105,-0.1651 -0.153553,-0.24804 -0.01548,-0.0785 -0.03123,-0.15723 -0.04725,-0.23624 2.65e-4,-0.62971 0,-1.88988 0,-1.88988 0,0 1.547326,-0.0236 1.547326,-0.0236 z" />
      <path
         style="fill:#252435;fill-opacity:1;stroke:#000000;stroke-width:0.264583px;stroke-linecap:butt;stroke-linejoin:miter;stroke-opacity:0"
         d="m 97.305245,155.8325 c 0,0 0,-1.58278 0,-1.58278 0.133867,0.008 0.268012,0.0157 0.358588,0.0316 0.09058,0.0158 0.137813,0.0394 0.190938,0.0848 0.05312,0.0453 0.112182,0.11227 0.15146,0.19497 0.03928,0.0827 0.05896,0.18112 0.06483,0.32874 0.0059,0.14763 -0.002,0.34449 -0.01384,0.47045 -0.01183,0.12596 -0.02758,0.18107 -0.04726,0.22825 -0.01968,0.0472 -0.04331,0.0866 -0.0689,0.122 -0.02559,0.0354 -0.05315,0.0669 -0.08261,0.0905 -0.02946,0.0236 -0.06098,0.0393 -0.15342,0.0433 -0.09244,0.004 -0.246243,-0.004 -0.399796,-0.0118 0,0 3e-6,2e-5 3e-6,2e-5 z"
         id="path867"
         inkscape:path-effect="#path-effect869"
         inkscape:original-d="m 97.305245,155.8325 c 0,0 0,-1.58278 0,-1.58278 0,0 0.267997,0.016 0.401601,0.0236 0.04751,0.0239 0.09476,0.0475 0.141739,0.0709 0.05933,0.0672 0.118383,0.13413 0.177176,0.20079 0.01995,0.0987 0.03964,0.19713 0.05906,0.2953 -0.0076,0.19713 -0.01548,0.39399 -0.02363,0.59059 -0.01548,0.0554 -0.03123,0.11051 -0.04725,0.16536 -0.02336,0.0396 -0.04698,0.079 -0.07087,0.11812 -0.0273,0.0318 -0.05486,0.0633 -0.08268,0.0945 -0.03123,0.016 -0.06273,0.0318 -0.09449,0.0472 -0.153292,-0.008 -0.460659,-0.0236 -0.460659,-0.0236 z" />
      <path
         style="fill:#b5ccce;fill-opacity:1;stroke:#000000;stroke-width:0.264583px;stroke-linecap:butt;stroke-linejoin:miter;stroke-opacity:0"
         d="m 92.792639,161.68136 c 0,0 7.960571,10e-4 7.960571,10e-4 -3.3e-4,0.10267 -6.7e-4,0.2056 -0.005,0.30368 -0.004,0.0981 -0.0113,0.1917 -0.0351,0.27381 -0.0238,0.0821 -0.0638,0.15266 -0.10304,0.21839 -0.0393,0.0657 -0.0776,0.12642 -0.15596,0.16547 -0.0783,0.039 -0.19681,0.0565 -0.35015,0.0665 -0.153333,0.0101 -0.341439,0.0127 -0.596991,0.0154 -0.255552,0.003 -0.578498,0.005 -1.569636,0.007 -0.991138,0.001 -2.650404,0.001 -3.520427,0 -0.870022,-0.001 -0.950741,-0.004 -1.030586,-0.0125 -0.07984,-0.008 -0.158824,-0.0228 -0.237997,-0.0525 -0.07917,-0.0297 -0.158472,-0.0749 -0.214256,-0.125 -0.05579,-0.0501 -0.0878,-0.105 -0.107145,-0.15855 -0.01934,-0.0535 -0.02582,-0.1056 -0.03258,-0.22219 -0.0068,-0.11659 -0.01378,-0.29793 -0.0208,-0.47901 0,0 0.01865,-0.001 0.01865,-0.001 z"
         id="path871"
         inkscape:path-effect="#path-effect873"
         inkscape:original-d="m 92.792639,161.68136 7.960571,10e-4 c 0,0 -6e-4,0.2056 -10e-4,0.308 -0.007,0.0938 -0.0146,0.1874 -0.0223,0.28079 -0.0398,0.071 -0.0798,0.14156 -0.12019,0.21199 -0.0382,0.061 -0.0765,0.12173 -0.1152,0.18221 -0.11826,0.0177 -0.23674,0.0351 -0.35554,0.0523 -0.187908,0.003 -0.376024,0.005 -0.564427,0.008 -0.322693,0.003 -0.645636,0.006 -0.968851,0.008 -1.659067,2.7e-4 -3.318333,2.7e-4 -4.977897,0 -0.08047,-0.003 -0.161211,-0.005 -0.242213,-0.008 -0.07872,-0.014 -0.1577,-0.0283 -0.236961,-0.0429 -0.07908,-0.045 -0.158387,-0.0902 -0.237994,-0.1357 -0.03182,-0.0548 -0.06385,-0.10971 -0.09618,-0.16498 -0.0062,-0.0518 -0.01269,-0.10386 -0.01943,-0.1562 -0.0067,-0.18082 -0.02104,-0.54323 -0.02104,-0.54323 z"
         sodipodi:nodetypes="ccccccccccccccccc" />
      <rect
         style="fill:#b5ccce;fill-opacity:1;stroke:#b5ccce;stroke-width:0.465;stroke-opacity:1"
         id="rect881"
         width="5.8131123"
         height="0.10022607"
         x="93.769844"
         y="158.35719" />
      <rect
         style="fill:#e9f5f5;stroke:#b5ccce;stroke-width:0.465;stroke-opacity:1"
         id="rect881-1"
         width="5.8131123"
         height="0.10022607"
         x="93.775894"
         y="159.51668" />
      <rect
         style="fill:#e9f5f5;stroke:#b5ccce;stroke-width:0.465;stroke-opacity:1"
         id="rect881-0"
         width="5.8131123"
         height="0.10022607"
         x="93.784653"
         y="160.60983" />
    </g>
    <path
       style="fill:#64a2c1;fill-opacity:1;stroke:#000000;stroke-width:0.264583px;stroke-linecap:butt;stroke-linejoin:miter;stroke-opacity:0"
       d="m 82.221633,124.69671 c 0,0 -4.653833,4.65383 -4.653833,4.65383 0,0 0.533005,0.54629 0.533005,0.54629 0,0 4.670076,-4.6745 4.670076,-4.6745 0,0 -0.549248,-0.52562 -0.549248,-0.52562 z"
       id="path1567"
       inkscape:path-effect="#path-effect1569"
       inkscape:original-d="m 82.221633,124.69671 -4.653833,4.65383 0.533005,0.54629 4.670076,-4.6745 z"
       sodipodi:nodetypes="ccccc" />
    <path
       style="fill:#4488b5;fill-opacity:1;stroke:#000000;stroke-width:0.264583px;stroke-linecap:butt;stroke-linejoin:miter;stroke-opacity:0"
       d="m 82.770881,125.22233 c 0,0 -4.670076,4.6745 -4.670076,4.6745 0,0 0.5773,0.58764 0.5773,0.58764 0,0 4.630208,-4.70108 4.630208,-4.70108 0,0 -0.537432,-0.56106 -0.537432,-0.56106 z"
       id="path1571"
       inkscape:path-effect="#path-effect1573"
       inkscape:original-d="m 82.770881,125.22233 -4.670076,4.6745 0.5773,0.58764 4.630208,-4.70108 z"
       sodipodi:nodetypes="ccccc" />
    <path
       style="fill:#252435;fill-opacity:1;stroke:#000000;stroke-width:0.264583px;stroke-linecap:butt;stroke-linejoin:miter;stroke-opacity:0"
       d="m 77.5678,129.35054 c 0,0 0,1.13393 0,1.13393 0,0 1.110305,0 1.110305,0 0,0 -1.110305,-1.13393 -1.110305,-1.13393 z"
       id="path1575"
       inkscape:path-effect="#path-effect1577"
       inkscape:original-d="m 77.5678,129.35054 c 0,0 0,1.13393 0,1.13393 0,0 1.110305,0 1.110305,0 0,0 -1.110305,-1.13393 -1.110305,-1.13393 z" />
  </g>
</svg>
