<?xml version="1.0" encoding="UTF-8" standalone="no"?>
<svg
   xmlns:dc="http://purl.org/dc/elements/1.1/"
   xmlns:cc="http://creativecommons.org/ns#"
   xmlns:rdf="http://www.w3.org/1999/02/22-rdf-syntax-ns#"
   xmlns:svg="http://www.w3.org/2000/svg"
   xmlns="http://www.w3.org/2000/svg"
   xmlns:sodipodi="http://sodipodi.sourceforge.net/DTD/sodipodi-0.dtd"
   xmlns:inkscape="http://www.inkscape.org/namespaces/inkscape"
   width="10.05416mm"
   height="10.05453mm"
   viewBox="0 0 10.05416 10.05453"
   version="1.1"
   id="svg8"
   inkscape:version="1.0.2-2 (e86c870879, 2021-01-15)"
   sodipodi:docname="verify.svg">
  <defs
     id="defs2" />
  <sodipodi:namedview
     id="base"
     pagecolor="#ffffff"
     bordercolor="#666666"
     borderopacity="1.0"
     inkscape:pageopacity="0.0"
     inkscape:pageshadow="2"
     inkscape:zoom="11.2"
     inkscape:cx="19.479871"
     inkscape:cy="27.22432"
     inkscape:document-units="mm"
     inkscape:current-layer="layer1"
     inkscape:document-rotation="0"
     showgrid="false"
     inkscape:window-width="1827"
     inkscape:window-height="1024"
     inkscape:window-x="93"
     inkscape:window-y="0"
     inkscape:window-maximized="0" />
  <metadata
     id="metadata5">
    <rdf:RDF>
      <cc:Work
         rdf:about="">
        <dc:format>image/svg+xml</dc:format>
        <dc:type
           rdf:resource="http://purl.org/dc/dcmitype/StillImage" />
        <dc:title />
      </cc:Work>
    </rdf:RDF>
  </metadata>
  <g
     inkscape:label="Warstwa 1"
     inkscape:groupmode="layer"
     id="layer1"
     transform="translate(-102.3654,-145.00584)">
    <g
       id="g847"
       transform="translate(-2.2206103,-1.1575521)">
      <path
         style="fill:#fdfdfd;stroke-width:0.264583"
         d="m 106.77985,154.75648 c 0.82092,-1.67382 0.87093,-1.97851 0.32477,-1.97851 -0.21549,0 -0.6734,0.55409 -1.01757,1.23131 -0.38056,0.74881 -0.6997,1.11169 -0.81444,0.92604 -0.24508,-0.39654 -0.6866,-0.39357 -0.6866,0.005 0,0.41177 0.79732,1.2776 1.17651,1.2776 0.16541,0 0.62321,-0.65748 1.01733,-1.46107 z m 7.86032,-0.25872 c 0,-0.33242 -0.55856,-0.39687 -3.43958,-0.39687 -2.88102,0 -3.43958,0.0644 -3.43958,0.39687 0,0.33243 0.55856,0.39688 3.43958,0.39688 2.88102,0 3.43958,-0.0645 3.43958,-0.39688 z m -7.86032,-3.18086 c 0.82092,-1.67382 0.87093,-1.97851 0.32477,-1.97851 -0.21549,0 -0.6734,0.55409 -1.01757,1.23131 -0.38056,0.7488 -0.6997,1.11168 -0.81444,0.92604 -0.24508,-0.39655 -0.6866,-0.39357 -0.6866,0.005 0,0.41176 0.79732,1.2776 1.17651,1.2776 0.16541,0 0.62321,-0.65748 1.01733,-1.46107 z m 7.86032,-0.25872 c 0,-0.33243 -0.55856,-0.39688 -3.43958,-0.39688 -2.88102,0 -3.43958,0.0644 -3.43958,0.39688 0,0.33242 0.55856,0.39687 3.43958,0.39687 2.88102,0 3.43958,-0.0644 3.43958,-0.39687 z m -7.86032,-2.91628 c 0.82092,-1.67382 0.87093,-1.97851 0.32477,-1.97851 -0.21549,0 -0.6734,0.55409 -1.01757,1.23131 -0.38056,0.7488 -0.6997,1.11168 -0.81444,0.92604 -0.24508,-0.39655 -0.6866,-0.39357 -0.6866,0.005 0,0.41176 0.79732,1.2776 1.17651,1.2776 0.16541,0 0.62321,-0.65748 1.01733,-1.46107 z m 7.86032,-0.25872 c 0,-0.33243 -0.55856,-0.39688 -3.43958,-0.39688 -2.88102,0 -3.43958,0.0644 -3.43958,0.39688 0,0.33242 0.55856,0.39687 3.43958,0.39687 2.88102,0 3.43958,-0.0644 3.43958,-0.39687 z"
         id="path853"
         sodipodi:nodetypes="cccscsssccssssscsccssccssssscsccssccsssss" />
      <path
         style="fill:#5e8d61;stroke-width:0.264583"
         d="m 105.02389,155.7337 c -0.48117,-0.53168 -0.57907,-1.10365 -0.18891,-1.10365 0.13693,0 0.33386,0.13737 0.43763,0.30527 0.11474,0.18565 0.43388,-0.17723 0.81444,-0.92604 0.34417,-0.67722 0.80208,-1.23131 1.01757,-1.23131 0.54616,0 0.49615,0.30469 -0.32477,1.97851 -0.76895,1.56786 -1.06988,1.73533 -1.75596,0.97722 z m 0,-3.43958 c -0.48117,-0.53169 -0.57907,-1.10365 -0.18891,-1.10365 0.13693,0 0.33386,0.13737 0.43763,0.30527 0.11474,0.18564 0.43388,-0.17724 0.81444,-0.92604 0.34417,-0.67722 0.80208,-1.23131 1.01757,-1.23131 0.54616,0 0.49615,0.30469 -0.32477,1.97851 -0.76895,1.56786 -1.06988,1.73533 -1.75596,0.97722 z m 0,-3.175 c -0.48117,-0.53169 -0.57907,-1.10365 -0.18891,-1.10365 0.13693,0 0.33386,0.13737 0.43763,0.30527 0.11474,0.18564 0.43388,-0.17724 0.81444,-0.92604 0.34417,-0.67722 0.80208,-1.23131 1.01757,-1.23131 0.54616,0 0.49615,0.30469 -0.32477,1.97851 -0.76895,1.56786 -1.06988,1.73533 -1.75596,0.97722 z"
         id="path851" />
      <path
         style="fill:#37354e;stroke-width:0.264583"
         d="m 107.89707,154.63616 c -0.0933,-0.15093 -0.006,-0.33723 0.19407,-0.41398 0.65064,-0.24968 6.28658,-0.003 6.28644,0.27558 -2e-4,0.36605 -6.25723,0.49968 -6.48051,0.1384 z m 0,-3.43958 c -0.0933,-0.15094 -0.006,-0.33723 0.19407,-0.41399 0.65064,-0.24967 6.28658,-0.003 6.28644,0.27559 -2e-4,0.36605 -6.25723,0.49967 -6.48051,0.1384 z m 0,-3.175 c -0.0933,-0.15094 -0.006,-0.33723 0.19407,-0.41399 0.65064,-0.24967 6.28658,-0.003 6.28644,0.27559 -2e-4,0.36605 -6.25723,0.49967 -6.48051,0.1384 z"
         id="path849" />
    </g>
  </g>
</svg>
